HIERARCHY
ROOT Hips
{
  OFFSET 3.13124 94.3669 -3.18751
  CHANNELS  6 Xposition Yposition Zposition Zrotation Xrotation Yrotation
  JOINT LeftUpLeg
  {
    OFFSET 8.64259 1.95398 -2.38835
    CHANNELS 3 Zrotation Xrotation Yrotation
    JOINT LeftLeg
    {
      OFFSET 43.7702 0 0
      CHANNELS 3 Zrotation Xrotation Yrotation
      JOINT LeftFoot
      {
        OFFSET 40.6238 0 0
        CHANNELS 3 Zrotation Xrotation Yrotation
        JOINT LeftToeBase
        {
          OFFSET 12.7242 0 0
          CHANNELS 3 Zrotation Xrotation Yrotation
          End Site
          {
            OFFSET 0 0 0
          }
        }
      }
    }
  }
  JOINT RightUpLeg
  {
    OFFSET -8.2249 1.95398 -2.59336
    CHANNELS 3 Zrotation Xrotation Yrotation
    JOINT RightLeg
    {
      OFFSET 43.5653 0 0
      CHANNELS 3 Zrotation Xrotation Yrotation
      JOINT RightFoot
      {
        OFFSET 40.6238 0 0
        CHANNELS 3 Zrotation Xrotation Yrotation
        JOINT RightToeBase
        {
          OFFSET 12.7242 0 0
          CHANNELS 3 Zrotation Xrotation Yrotation
          End Site
          {
            OFFSET 0 0 0
          }
        }
      }
    }
  }
  JOINT Spine
  {
    OFFSET 0.165834 0.87714 6.61349
    CHANNELS 3 Zrotation Xrotation Yrotation
    JOINT Spine1
    {
      OFFSET 7.38962 1.71661e-005 0
      CHANNELS 3 Zrotation Xrotation Yrotation
      JOINT Spine2
      {
        OFFSET 11.9445 1.14441e-005 0
        CHANNELS 3 Zrotation Xrotation Yrotation
        JOINT Spine3
        {
          OFFSET 14.7254 4.19617e-005 0
          CHANNELS 3 Zrotation Xrotation Yrotation
          JOINT Spine4
          {
            OFFSET 10.9679 0 0
            CHANNELS 3 Zrotation Xrotation Yrotation
            JOINT RightShoulder
            {
              OFFSET 2.46616 -1.6653 3.69651
              CHANNELS 3 Zrotation Xrotation Yrotation
              JOINT RightArm
              {
                OFFSET 13.0012 0 0
                CHANNELS 3 Zrotation Xrotation Yrotation
                JOINT RightForeArm
                {
                  OFFSET 28.7848 1.52588e-005 0
                  CHANNELS 3 Zrotation Xrotation Yrotation
                  JOINT RightHand
                  {
                    OFFSET 26.5688 1.52588e-005 0
                    CHANNELS 3 Zrotation Xrotation Yrotation
                    End Site
                    {
                      OFFSET 0 0 0
                    }
                  }
                }
              }
            }
            JOINT LeftShoulder
            {
              OFFSET 2.38034 -1.29275 -3.75231
              CHANNELS 3 Zrotation Xrotation Yrotation
              JOINT LeftArm
              {
                OFFSET 16.3182 6.10352e-005 0
                CHANNELS 3 Zrotation Xrotation Yrotation
                JOINT LeftForeArm
                {
                  OFFSET 27.0901 0 0
                  CHANNELS 3 Zrotation Xrotation Yrotation
                  JOINT LeftHand
                  {
                    OFFSET 24.5451 1.52588e-005 0
                    CHANNELS 3 Zrotation Xrotation Yrotation
                    End Site
                    {
                      OFFSET 0 0 0
                    }
                  }
                }
              }
            }
            JOINT Neck
            {
              OFFSET 5.0226 -0.0266342 0
              CHANNELS 3 Zrotation Xrotation Yrotation
              JOINT Head
              {
                OFFSET 6.69363 2.86102e-005 0
                CHANNELS 3 Zrotation Xrotation Yrotation
                End Site
                {
                  OFFSET 0 0 0
                }
              }
            }
          }
        }
      }
    }
  }
}
MOTION
Frames:	12
Frame Time:	0.0333333
20.1433 98.0771 42.9074 -38.7427 -74.7557 -52.8262 -173.676 11.6394 99.42 -2.84987 -29.5251 2.60576 3.46477 -2.51964 -7.4398 28.7808 7.05447e-006 4.14214e-006 177.343 23.6176 80.0205 -18.9864 11.3236 0.618722 62.6364 -8.79443 -5.04515 28.7808 1.37631e-005 2.35286e-005 0.346496 7.18078 -91.8462 12.4951 -0.234147 -2.71894 0.821376 -0.353528 -2.70603 -21.6916 0.593534 -2.66372 -1.67901 0.593534 -2.66373 100.349 -28.4471 -85.8979 43.7083 27.5627 -1.46025 -3.7835 0.156947 -5.38364 -5.37983 -0.319996 -0.0162411 -73.7586 -29.0611 105.092 31.8452 46.2743 -39.8013 51.9678 -15.3989 -84.1894 39.8511 -6.41983 -20.6662 120.276 30.1879 -46.3954 56.9556 64.5264 -75.7135 
22.1124 97.3918 43.432 -44.907 -70.2335 -60.8361 -173.976 12.648 98.4611 -5.14095 -31.9311 1.28582 10.5272 -3.13086 -7.20249 28.7808 7.05447e-006 4.14214e-006 178.286 28.9369 77.356 -24.4246 7.31009 0.335673 65.2822 -6.44572 -3.53386 28.7808 1.37631e-005 2.35286e-005 0.695585 7.18932 -91.7236 12.4883 0.544607 -3.22797 0.813431 0.402077 -3.24879 -21.6952 1.48917 -2.91554 -1.68261 1.48917 -2.91555 99.7893 -28.3188 -87.0858 40.4088 28.7007 -0.135345 -3.11206 0.120677 -5.7084 -5.37983 -0.319996 -0.0162411 -73.5242 -24.4161 106.156 27.8458 53.2922 -24.5085 52.141 -16.7071 -82.9148 38.1115 -6.86728 -22.6169 120.609 33.0476 -48.0206 59.7346 64.9137 -78.5016 
24.1178 96.2961 43.7536 -48.3225 -66.3962 -65.4159 -173.629 14.9324 98.4973 -10.4717 -32.1839 -1.15615 20.0286 -4.84345 -7.96028 28.7808 7.05447e-006 4.14214e-006 179.915 34.4647 75.039 -30.8797 4.7287 0.121281 67.4345 -4.22038 -2.24916 28.7808 1.37631e-005 2.35286e-005 1.01773 7.36729 -91.831 12.1444 1.14944 -3.77002 0.468306 0.982522 -3.81687 -22.0363 2.2288 -3.25118 -2.02367 2.22879 -3.25117 98.7708 -28.2064 -89.2443 36.8467 30.1537 1.21521 -3.11135 0.116745 -6.30894 -5.37983 -0.319996 -0.0162411 -73.8728 -19.4708 106.089 16.4252 61.0356 -5.57891 54.0258 -15.0452 -80.9475 42.7128 -6.83597 -20.5473 121.899 35.5268 -49.5305 63.2084 65.3287 -82.001 
26.2741 94.8353 43.691 -47.4117 -63.5042 -65.7843 -173.102 19.2375 98.5841 -16.2388 -28.4257 -3.6328 29.3938 -6.87661 -8.68371 28.7808 7.05447e-006 4.14214e-006 -177.987 40.3378 72.3436 -36.3107 3.42309 -0.013941 69.4158 -3.0472 -1.60921 28.7808 1.37631e-005 2.35286e-005 1.36497 7.53257 -92.0467 11.8243 1.73561 -4.27461 0.147234 1.54596 -4.3467 -22.3553 2.93932 -3.55677 -2.34267 2.93931 -3.55677 97.7446 -27.9694 -91.4422 32.9884 31.7905 3.6088 -3.46451 0.129955 -7.24984 -5.37983 -0.319996 -0.0162411 -73.809 -16.6865 106.689 4.27211 65.4657 11.4964 60.7451 -10.3069 -77.8792 49.6117 -5.96324 -16.3696 123.981 38.6029 -50.0409 65.809 65.501 -84.4551 
28.2893 93.1022 43.4625 -46.8651 -62.0769 -66.6573 -172.759 23.2359 98.5227 -21.3552 -25.8171 -5.5362 35.9423 -10.0354 -10.593 28.7808 7.05447e-006 4.14214e-006 -175.279 45.2103 69.0297 -41.8654 4.78238 -0.00937081 71.7958 -2.73197 -1.44118 28.7808 1.37631e-005 2.35286e-005 1.65933 7.79832 -92.1659 11.3101 2.3058 -4.70781 -0.367671 2.09663 -4.80445 -22.8709 3.61316 -3.79902 -2.85829 3.61316 -3.79902 97.1817 -27.6556 -92.6855 29.0619 33.0568 6.39263 -3.70677 0.17421 -8.00286 -5.37983 -0.319996 -0.0162411 -74.0092 -15.2569 106.44 -4.18697 62.7249 21.8323 61.8795 -2.78918 -78.4535 51.213 -5.60091 -15.255 126.279 42.3054 -49.6721 67.0447 65.4696 -85.3355 
30.2974 91.1589 43.1331 -45.1374 -61.2003 -66.9478 -172.564 27.5657 97.9002 -25.6822 -21.9927 -7.00792 40.8255 -11.5839 -10.9597 28.7808 7.05447e-006 4.14214e-006 -171.212 50.024 63.7695 -47.5039 5.15382 -0.074718 74.2662 -2.61605 -1.3776 28.7808 1.37631e-005 2.35286e-005 1.86635 8.06161 -92.207 10.804 2.78123 -5.03302 -0.874206 2.55732 -5.15018 -23.3801 4.16418 -3.96658 -3.3675 4.16418 -3.9666 97.1623 -26.7269 -92.8988 25.8247 34.7286 8.19795 -4.38848 0.234946 -8.22596 -5.37983 -0.319996 -0.0162411 -74.0961 -15.6315 106.163 -5.24679 54.126 23.468 67.7383 7.62191 -80.7877 48.0168 -4.887 -14.5471 128.843 46.1979 -49.2796 68.1377 65.4309 -86.0158 
32.2012 89.1471 42.7908 -42.0208 -60.668 -66.0113 -172.64 32.7168 97.1798 -29.9202 -17.1436 -7.63877 44.8091 -14.1955 -12.2724 28.7808 7.05447e-006 4.14214e-006 -165.513 54.4661 56.7594 -52.7664 5.04785 -0.170615 76.519 -1.83361 -1.02902 28.7808 1.37631e-005 2.35286e-005 1.86628 8.32086 -92.1453 10.3082 2.99318 -5.32767 -1.37076 2.75615 -5.4538 -23.8744 4.45468 -4.18432 -3.86175 4.45468 -4.18431 96.7423 -23.9808 -94.3598 23.6053 35.7956 10.096 -5.09631 0.253152 -7.95336 -5.37983 -0.319996 -0.0162411 -73.6601 -16.8638 107.012 -3.47232 44.0144 22.0845 70.709 17.5741 -85.1158 47.9552 -4.96592 -14.728 132.452 49.571 -49.969 71.2084 65.4677 -88.741 
33.9946 87.053 42.576 -38.7914 -60.0953 -64.3814 -172.569 37.6263 96.9164 -33.9218 -13.1508 -8.29209 49.4713 -15.4614 -12.147 28.7808 7.05447e-006 4.14214e-006 -158.586 58.2146 48.9862 -57.6151 5.53757 -0.232361 78.2917 -0.681583 -0.558346 28.7808 1.37631e-005 2.35286e-005 1.85897 8.96045 -92.1519 9.05065 3.22297 -5.62471 -2.62906 2.9727 -5.76059 -25.1308 4.7629 -4.39895 -5.11817 4.7629 -4.39897 98.4135 -17.034 -91.8275 28.9601 35.4014 4.53402 -6.55775 0.291145 -8.24525 -5.37983 -0.319996 -0.0162411 -71.014 -17.7729 113.187 0.438172 33.8706 14.4911 73.2682 26.8418 -88.9909 45.3803 -5.19021 -15.8595 130.296 47.3292 -44.0751 59.2489 67.0397 -77.3364 
35.7569 85.0259 42.3996 -35.8332 -59.5622 -62.5486 -172.137 42.6682 96.9564 -39.0899 -10.7917 -9.44718 53.1 -16.4682 -12.0038 28.7808 7.05447e-006 4.14214e-006 -150.922 61.016 40.7786 -61.8654 6.62395 -0.254993 79.6204 0.251347 -0.204449 28.7808 1.37631e-005 2.35286e-005 1.49361 9.20703 -91.6499 8.56313 3.0466 -5.07056 -3.11463 2.82081 -5.19931 -25.6262 4.42858 -3.92256 -5.61352 4.42858 -3.92257 97.0034 -22.4866 -94.1078 23.0679 37.7325 1.99668 -7.93305 0.382462 -8.30937 -5.37983 -0.319996 -0.0162411 -70.9085 -10.2663 115.869 -5.46724 26.2155 14.4627 81.2885 36.413 -95.2294 44.1163 -5.42228 -16.7447 -65.7756 -55.8781 -151.839 96.5519 -64.7808 94.0778 
37.4286 82.9971 42.2485 -33.2749 -59.8909 -60.8216 -171.51 47.2383 96.5757 -44.5201 -8.45776 -10.5338 57.077 -16.0453 -10.7864 28.7808 7.05447e-006 4.14214e-006 -143.302 62.1598 32.3766 -65.8747 7.29539 -0.304845 80.9821 1.30137 0.172514 28.7808 1.37631e-005 2.35286e-005 1.07243 9.00029 -91.5714 8.98401 2.66273 -5.55569 -2.69655 2.41604 -5.66706 -25.1858 4.2078 -4.50162 -5.17319 4.20781 -4.50162 94.6577 -22.746 -99.4195 13.3726 40.9507 8.17076 -9.13461 0.45387 -8.73145 -5.37983 -0.319996 -0.0162411 -74.3474 -14.0858 105.777 -5.35973 13.7379 24.4471 95.3275 46.7741 -107.71 42.5462 -5.78203 -18.0904 -60.9419 -61.8602 -146.069 82.6774 -66.0632 82.0208 
39.1712 80.8949 42.1312 -30.6571 -60.3145 -58.842 -171.029 51.4443 95.977 -49.7298 -7.9044 -11.4763 61.0278 -15.8452 -9.78185 28.7808 7.05447e-006 4.14214e-006 -136.205 62.4849 24.4916 -69.2268 9.00864 -0.281898 82.9064 2.88032 0.690615 28.7808 1.37631e-005 2.35286e-005 0.785315 8.88254 -91.3963 9.23179 2.59968 -5.78689 -2.44993 2.34294 -5.89524 -24.9311 4.21692 -4.74148 -4.91842 4.21692 -4.7415 94.2522 -24.7916 -99.6953 5.71347 43.2208 8.70144 -8.71206 0.312351 -7.95315 -5.37983 -0.319996 -0.0162411 -77.9005 -15.701 96.6943 -2.22127 -0.133025 31.916 120.516 53.14 -127.469 38.1666 -5.84487 -19.8518 -61.8039 -63.2837 -146.921 83.0255 -66.1516 82.7031 
41.0598 78.9945 41.9966 -28.0941 -59.9953 -56.4054 -170.518 56.1074 95.6268 -55.3677 -7.46097 -12.2235 64.624 -14.8875 -8.47623 28.7808 7.05447e-006 4.14214e-006 -129.159 62.9118 17.0637 -71.8732 10.0757 -0.285166 83.6594 3.36541 0.834823 28.7808 1.37631e-005 2.35286e-005 0.37649 9.05308 -91.1242 8.8964 2.49169 -5.88197 -2.78592 2.23088 -5.98544 -25.2617 4.14236 -4.86481 -5.24904 4.14236 -4.86479 94.1023 -23.2124 -100.526 3.12494 42.9552 6.85845 -8.09806 0.229124 -8.17394 -5.37983 -0.319996 -0.0162411 -77.2976 -16.4832 98.167 2.78368 -12.2876 32.0781 147.804 55.0094 -149.264 34.1066 -4.02946 -16.2777 -58.7065 -62.5624 -145.478 79.7705 -66.2525 79.4591 
